<svg width="25" height="25" viewBox="0 0 25 25" fill="none" xmlns="http://www.w3.org/2000/svg">
<path d="M14.8863 16.7421L14.8862 16.742L12.6768 14.5326L12.5 14.3558L12.3232 14.5326L10.1138 16.742L10.1138 16.742C9.86767 16.9883 9.5338 17.1268 9.18562 17.1269C8.83744 17.127 8.50347 16.9888 8.25718 16.7427C8.01089 16.4966 7.87246 16.1627 7.87234 15.8145C7.87222 15.4664 8.01039 15.1324 8.25647 14.8861C8.25649 14.8861 8.25651 14.8861 8.25653 14.8861L10.4673 12.6768L10.6443 12.5L10.4673 12.3232L8.25653 10.1139C8.25651 10.1139 8.25649 10.1139 8.25647 10.1138C8.13463 9.99191 8.038 9.84718 7.97209 9.6879C7.90618 9.5286 7.87228 9.35787 7.87234 9.18547C7.8724 9.01307 7.90642 8.84237 7.97245 8.68312C8.03848 8.52386 8.13523 8.37917 8.25718 8.25731C8.37913 8.13544 8.52389 8.03879 8.68319 7.97288C8.84249 7.90696 9.01322 7.87306 9.18562 7.87312C9.35802 7.87318 9.52872 7.9072 9.68798 7.97323C9.84723 8.03926 9.99192 8.13601 10.1138 8.25796L10.1138 8.25803L12.3232 10.4674L12.5 10.6442L12.6768 10.4674L14.8862 8.25803C15.3995 7.74472 16.2287 7.74472 16.742 8.25803C17.2553 8.77133 17.2553 9.60054 16.742 10.1138L14.5326 12.3232L14.3558 12.5L14.5326 12.6768L16.742 14.8862L16.7421 14.8863C16.8641 15.0081 16.9609 15.1527 17.0269 15.3119C17.0929 15.4711 17.1269 15.6417 17.1269 15.8141C17.1269 15.9864 17.0929 16.1571 17.0269 16.3163C16.9609 16.4754 16.8641 16.6201 16.7421 16.7418L16.7418 16.7421C16.6201 16.8641 16.4754 16.9609 16.3163 17.0269C16.1571 17.0929 15.9864 17.1269 15.8141 17.1269C15.6417 17.1269 15.4711 17.0929 15.3119 17.0269C15.1527 16.9609 15.0081 16.8641 14.8863 16.7421ZM20.3125 24.75H4.6875C3.5106 24.75 2.38191 24.2825 1.54971 23.4503C0.717521 22.6181 0.25 21.4894 0.25 20.3125V4.6875C0.25 3.5106 0.717521 2.38191 1.54971 1.54971C2.38191 0.717521 3.5106 0.25 4.6875 0.25H20.3125C22.762 0.25 24.75 2.23656 24.75 4.6875V20.3125C24.75 22.7634 22.762 24.75 20.3125 24.75ZM22.125 4.6875C22.125 3.68537 21.3146 2.875 20.3125 2.875H4.6875C4.20679 2.875 3.74578 3.06596 3.40587 3.40587C3.06596 3.74578 2.875 4.20679 2.875 4.6875V20.3125C2.875 20.7932 3.06596 21.2542 3.40587 21.5941C3.74578 21.934 4.20679 22.125 4.6875 22.125H20.3125C21.3146 22.125 22.125 21.3146 22.125 20.3125V4.6875Z" fill="url(#paint0_linear_8_124)" stroke="white" stroke-width="0.5"/>
<defs>
<linearGradient id="paint0_linear_8_124" x1="-2.77047" y1="20.47" x2="30.7131" y2="8.0229" gradientUnits="userSpaceOnUse">
<stop offset="0.11" stop-color="#F1C038"/>
<stop offset="0.16" stop-color="#F0B036"/>
<stop offset="0.33" stop-color="#EC7B31"/>
<stop offset="0.49" stop-color="#E9512D"/>
<stop offset="0.64" stop-color="#E7332A"/>
<stop offset="0.76" stop-color="#E52128"/>
<stop offset="0.85" stop-color="#E51A27"/>
</linearGradient>
</defs>
</svg>
