<svg width="16" height="20" viewBox="0 0 16 20" fill="none" xmlns="http://www.w3.org/2000/svg">
<path d="M7.80872 9.58472C10.1793 9.58472 12.1011 7.66296 12.1011 5.29236C12.1011 2.92175 10.1793 1 7.80872 1C5.43811 1 3.51636 2.92175 3.51636 5.29236C3.51636 7.66296 5.43811 9.58472 7.80872 9.58472Z" stroke="url(#paint0_linear_8_142)" stroke-width="1.5" stroke-linecap="round" stroke-linejoin="round"/>
<path fill-rule="evenodd" clip-rule="evenodd" d="M1.00001 15.5547C0.998875 15.2529 1.06636 14.9549 1.19738 14.683C1.60853 13.8607 2.76797 13.4249 3.73005 13.2276C4.42391 13.0795 5.12735 12.9806 5.83513 12.9315C7.14554 12.8164 8.46352 12.8164 9.77393 12.9315C10.4817 12.9811 11.1851 13.0801 11.879 13.2276C12.8411 13.4249 14.0005 13.8196 14.4117 14.683C14.6752 15.2371 14.6752 15.8804 14.4117 16.4345C14.0005 17.2979 12.8411 17.6926 11.879 17.8818C11.186 18.036 10.4823 18.1377 9.77393 18.186C8.70737 18.2764 7.63582 18.2929 6.56698 18.2354C6.32029 18.2354 6.08182 18.2354 5.83513 18.186C5.12944 18.1383 4.42844 18.0366 3.73828 17.8818C2.76797 17.6926 1.61675 17.2979 1.19738 16.4345C1.06703 16.1596 0.999612 15.859 1.00001 15.5547Z" stroke="url(#paint1_linear_8_142)" stroke-width="1.5" stroke-linecap="round" stroke-linejoin="round"/>
<defs>
<linearGradient id="paint0_linear_8_142" x1="2.56501" y1="8.02915" x2="14.0629" y2="3.75497" gradientUnits="userSpaceOnUse">
<stop offset="0.11" stop-color="#F1C038"/>
<stop offset="0.16" stop-color="#F0B036"/>
<stop offset="0.33" stop-color="#EC7B31"/>
<stop offset="0.49" stop-color="#E9512D"/>
<stop offset="0.64" stop-color="#E7332A"/>
<stop offset="0.76" stop-color="#E52128"/>
<stop offset="0.85" stop-color="#E51A27"/>
</linearGradient>
<linearGradient id="paint1_linear_8_142" x1="-0.508167" y1="17.2861" x2="10.5858" y2="6.93803" gradientUnits="userSpaceOnUse">
<stop offset="0.11" stop-color="#F1C038"/>
<stop offset="0.16" stop-color="#F0B036"/>
<stop offset="0.33" stop-color="#EC7B31"/>
<stop offset="0.49" stop-color="#E9512D"/>
<stop offset="0.64" stop-color="#E7332A"/>
<stop offset="0.76" stop-color="#E52128"/>
<stop offset="0.85" stop-color="#E51A27"/>
</linearGradient>
</defs>
</svg>
