<svg width="24" height="18" viewBox="0 0 24 18" fill="none" xmlns="http://www.w3.org/2000/svg">
<path d="M12 3.70588C13.03 3.70588 13.8683 2.87449 13.8683 1.85294C13.8683 0.831388 13.03 0 12 0C10.97 0 10.1317 0.831388 10.1317 1.85294C10.1317 2.87449 10.97 3.70588 12 3.70588ZM12 0.529412C12.7358 0.529412 13.3345 1.1232 13.3345 1.85294C13.3345 2.58268 12.7358 3.17647 12 3.17647C11.2642 3.17647 10.6655 2.58268 10.6655 1.85294C10.6655 1.1232 11.2642 0.529412 12 0.529412ZM0 14.8235C0.13665 16.5977 1.63596 18 3.45938 18H20.5406C22.364 18 23.8634 16.5977 24 14.8235H0Z" fill="#BBBBBB"/>
<path d="M1.06075 14.2941H3.19718C3.29027 11.2917 4.9574 8.51337 7.59603 6.99586C7.65713 6.96253 7.72896 6.95424 7.79614 6.97277C7.86332 6.9913 7.92053 7.03516 7.95552 7.09499C7.9905 7.15482 8.00049 7.22585 7.98335 7.29288C7.9662 7.35992 7.92328 7.41764 7.86378 7.45369C5.38913 8.87633 3.82364 11.4793 3.73097 14.2937H22.9397C22.7975 8.4312 17.9451 3.70546 12.0004 3.70546C6.05573 3.70546 1.20295 8.4312 1.06075 14.2941ZM12 5.82353C13.1415 5.82353 14.2526 6.03784 15.3031 6.46094C15.3362 6.47352 15.3665 6.49254 15.3922 6.51688C15.4179 6.54121 15.4384 6.57038 15.4525 6.60268C15.4667 6.63497 15.4742 6.66974 15.4746 6.70495C15.475 6.74016 15.4684 6.7751 15.455 6.80772C15.4417 6.84035 15.4219 6.87001 15.3968 6.89496C15.3718 6.91991 15.342 6.93965 15.3091 6.95303C15.2763 6.96641 15.2411 6.97315 15.2056 6.97287C15.1701 6.97259 15.135 6.96529 15.1024 6.95139C14.1171 6.55442 13.0635 6.35117 12 6.35294C11.9292 6.35294 11.8613 6.32505 11.8113 6.27541C11.7612 6.22577 11.7331 6.15844 11.7331 6.08824C11.7331 6.01803 11.7612 5.9507 11.8113 5.90106C11.8613 5.85142 11.9292 5.82353 12 5.82353Z" fill="#BBBBBB"/>
</svg>
