<svg width="20" height="16" viewBox="0 0 20 16" fill="none" xmlns="http://www.w3.org/2000/svg">
<path d="M10.1857 5.97862C10.1857 5.80244 10.1157 5.63347 9.99111 5.5089C9.86654 5.38432 9.69757 5.31433 9.52139 5.31433C9.34521 5.31433 9.17625 5.38432 9.05167 5.5089C8.92709 5.63347 8.85711 5.80244 8.85711 5.97862V6.5995L8.31948 6.2895C8.16749 6.20856 7.99001 6.18981 7.82446 6.23719C7.6589 6.28458 7.51822 6.3944 7.43207 6.54349C7.34592 6.69259 7.32104 6.86932 7.36266 7.03641C7.40428 7.2035 7.50917 7.3479 7.65519 7.43916L8.19282 7.74916L7.65519 8.06005C7.5025 8.14814 7.39106 8.29327 7.34538 8.46353C7.29971 8.63379 7.32353 8.81521 7.41162 8.9679C7.49971 9.12059 7.64485 9.23203 7.8151 9.27771C7.98536 9.32339 8.16679 9.29956 8.31948 9.21147L8.85711 8.90059V9.52147C8.85711 9.69765 8.92709 9.86662 9.05167 9.99119C9.17625 10.1158 9.34521 10.1858 9.52139 10.1858C9.69757 10.1858 9.86654 10.1158 9.99111 9.99119C10.1157 9.86662 10.1857 9.69765 10.1857 9.52147V8.90147L10.7233 9.21147C10.876 9.29956 11.0574 9.32339 11.2277 9.27771C11.3979 9.23203 11.5431 9.12059 11.6312 8.9679C11.7193 8.81521 11.7431 8.63379 11.6974 8.46353C11.6517 8.29327 11.5403 8.14814 11.3876 8.06005L10.85 7.75005L11.3876 7.44005C11.5403 7.35196 11.6517 7.20682 11.6974 7.03656C11.7431 6.86631 11.7193 6.68488 11.6312 6.53219C11.5431 6.3795 11.3979 6.26806 11.2277 6.22238C11.0574 6.1767 10.876 6.20053 10.7233 6.28862L10.1857 6.59862V5.97862ZM4.85634 5.31433C5.03252 5.31433 5.20148 5.38432 5.32606 5.5089C5.45063 5.63347 5.52062 5.80244 5.52062 5.97862V6.59862L6.05736 6.28862C6.21005 6.20053 6.39148 6.1767 6.56174 6.22238C6.73199 6.26806 6.87713 6.3795 6.96522 6.53219C7.05331 6.68488 7.07714 6.86631 7.03146 7.03656C6.98578 7.20682 6.87434 7.35196 6.72165 7.44005L6.18402 7.75005L6.72165 8.06005C6.79725 8.10366 6.86353 8.16175 6.91668 8.23097C6.96984 8.3002 7.00884 8.37923 7.03146 8.46353C7.05408 8.54783 7.05987 8.63576 7.0485 8.7223C7.03714 8.80884 7.00884 8.8923 6.96522 8.9679C6.9216 9.04351 6.86352 9.10978 6.79429 9.16294C6.72506 9.21609 6.64604 9.25509 6.56174 9.27771C6.47744 9.30033 6.3895 9.30612 6.30296 9.29476C6.21642 9.28339 6.13297 9.25509 6.05736 9.21147L5.52062 8.90147V9.52147C5.52062 9.69765 5.45063 9.86662 5.32606 9.99119C5.20148 10.1158 5.03252 10.1858 4.85634 10.1858C4.68016 10.1858 4.51119 10.1158 4.38661 9.99119C4.26204 9.86662 4.19205 9.69765 4.19205 9.52147V8.90059L3.65354 9.21059C3.50154 9.29153 3.32406 9.31028 3.15851 9.2629C2.99296 9.21551 2.85228 9.1057 2.76613 8.9566C2.67998 8.8075 2.65509 8.63077 2.69672 8.46368C2.73834 8.29659 2.84322 8.15219 2.98925 8.06093L3.52688 7.75005L2.98925 7.44005C2.91365 7.39643 2.84737 7.33835 2.79422 7.26912C2.74106 7.19989 2.70206 7.12086 2.67944 7.03656C2.65682 6.95226 2.65103 6.86433 2.6624 6.77779C2.67376 6.69125 2.70206 6.60779 2.74568 6.53219C2.7893 6.45658 2.84738 6.39031 2.91661 6.33716C2.98584 6.284 3.06486 6.245 3.14916 6.22238C3.23346 6.19976 3.3214 6.19397 3.40794 6.20533C3.49448 6.2167 3.57793 6.245 3.65354 6.28862L4.19205 6.5995V5.97862C4.19205 5.80244 4.26204 5.63347 4.38661 5.5089C4.51119 5.38432 4.68016 5.31433 4.85634 5.31433ZM14.8516 5.97862C14.8516 5.80244 14.7816 5.63347 14.6571 5.5089C14.5325 5.38432 14.3635 5.31433 14.1873 5.31433C14.0112 5.31433 13.8422 5.38432 13.7176 5.5089C13.593 5.63347 13.523 5.80244 13.523 5.97862V6.5995L12.9854 6.2895C12.8334 6.20856 12.6559 6.18981 12.4904 6.23719C12.3248 6.28458 12.1842 6.3944 12.098 6.54349C12.0119 6.69259 11.987 6.86932 12.0286 7.03641C12.0702 7.2035 12.1751 7.3479 12.3211 7.43916L12.8588 7.74916L12.3202 8.06005C12.1676 8.14814 12.0561 8.29327 12.0104 8.46353C11.9648 8.63379 11.9886 8.81521 12.0767 8.9679C12.1648 9.12059 12.3099 9.23203 12.4802 9.27771C12.6504 9.32339 12.8318 9.29956 12.9845 9.21147L13.523 8.90059V9.52147C13.523 9.69765 13.593 9.86662 13.7176 9.99119C13.8422 10.1158 14.0112 10.1858 14.1873 10.1858C14.3635 10.1858 14.5325 10.1158 14.6571 9.99119C14.7816 9.86662 14.8516 9.69765 14.8516 9.52147V8.90147L15.3892 9.21147C15.5419 9.29956 15.7234 9.32339 15.8936 9.27771C16.0639 9.23203 16.209 9.12059 16.2971 8.9679C16.3852 8.81521 16.409 8.63379 16.3633 8.46353C16.3177 8.29327 16.2062 8.14814 16.0535 8.06005L15.5159 7.75005L16.0535 7.44005C16.2062 7.35196 16.3177 7.20682 16.3633 7.03656C16.409 6.86631 16.3852 6.68488 16.2971 6.53219C16.209 6.3795 16.0639 6.26806 15.8936 6.22238C15.7234 6.1767 15.5419 6.20053 15.3892 6.28862L14.8516 6.59862V5.97862Z" fill="url(#paint0_linear_8_136)"/>
<path fill-rule="evenodd" clip-rule="evenodd" d="M7.7004 0C6.07246 0 4.78286 1.05585e-07 3.77403 0.135514C2.73597 0.275457 1.89543 0.569514 1.23203 1.23203C0.569514 1.89543 0.275457 2.73597 0.135514 3.77403C0 4.78374 0 6.07246 0 7.7004V7.7996C0 9.42754 0 10.7171 0.135514 11.726C0.275457 12.764 0.569514 13.6046 1.23203 14.268C1.89543 14.9305 2.73597 15.2245 3.77403 15.3645C4.78374 15.5 6.07246 15.5 7.7004 15.5H11.3425C12.9704 15.5 14.26 15.5 15.2688 15.3645C16.3069 15.2245 17.1474 14.9305 17.8108 14.268C18.4733 13.6046 18.7674 12.764 18.9073 11.726C19.0429 10.7163 19.0429 9.42754 19.0429 7.7996V7.7004C19.0429 6.07246 19.0429 4.78286 18.9073 3.77403C18.7674 2.73597 18.4733 1.89543 17.8108 1.23203C17.1474 0.569514 16.3069 0.275457 15.2688 0.135514C14.2591 1.05585e-07 12.9704 0 11.3425 0H7.7004ZM2.17177 2.17177C2.54643 1.79711 3.06014 1.57214 3.95117 1.45257C4.86169 1.33034 6.06094 1.32857 7.75 1.32857H11.2929C12.9819 1.32857 14.1821 1.33034 15.0926 1.45257C15.9827 1.57214 16.4964 1.79711 16.8711 2.17177C17.2457 2.54643 17.4707 3.06014 17.5903 3.95117C17.7125 4.86169 17.7143 6.06094 17.7143 7.75C17.7143 9.43906 17.7125 10.6383 17.5903 11.5497C17.4707 12.4399 17.2457 12.9536 16.8711 13.3282C16.4964 13.7029 15.9827 13.9279 15.0917 14.0474C14.1821 14.1697 12.9819 14.1714 11.2929 14.1714H7.75C6.06094 14.1714 4.86169 14.1697 3.95029 14.0474C3.06014 13.9279 2.54643 13.7029 2.17177 13.3282C1.79711 12.9536 1.57214 12.4399 1.45257 11.5488C1.33034 10.6383 1.32857 9.43906 1.32857 7.75C1.32857 6.06094 1.33034 4.86169 1.45257 3.95029C1.57214 3.06014 1.79711 2.54643 2.17177 2.17177Z" fill="url(#paint1_linear_8_136)"/>
<defs>
<linearGradient id="paint0_linear_8_136" x1="1.13527" y1="9.30305" x2="11.1129" y2="-1.15027" gradientUnits="userSpaceOnUse">
<stop offset="0.11" stop-color="#F1C038"/>
<stop offset="0.16" stop-color="#F0B036"/>
<stop offset="0.33" stop-color="#EC7B31"/>
<stop offset="0.49" stop-color="#E9512D"/>
<stop offset="0.64" stop-color="#E7332A"/>
<stop offset="0.76" stop-color="#E52128"/>
<stop offset="0.85" stop-color="#E51A27"/>
</linearGradient>
<linearGradient id="paint1_linear_8_136" x1="-2.11031" y1="12.6914" x2="21.9092" y2="1.72159" gradientUnits="userSpaceOnUse">
<stop offset="0.11" stop-color="#F1C038"/>
<stop offset="0.16" stop-color="#F0B036"/>
<stop offset="0.33" stop-color="#EC7B31"/>
<stop offset="0.49" stop-color="#E9512D"/>
<stop offset="0.64" stop-color="#E7332A"/>
<stop offset="0.76" stop-color="#E52128"/>
<stop offset="0.85" stop-color="#E51A27"/>
</linearGradient>
</defs>
</svg>
