<svg width="16" height="16" viewBox="0 0 16 16" fill="none" xmlns="http://www.w3.org/2000/svg">
<rect width="16" height="16" rx="8" fill="url(#paint0_linear_8_112)"/>
<path d="M11.7404 8.62337H8.62349V11.7402C8.62349 11.9056 8.55781 12.0641 8.4409 12.181C8.324 12.2979 8.16544 12.3636 8.00011 12.3636C7.83478 12.3636 7.67622 12.2979 7.55932 12.181C7.44241 12.0641 7.37673 11.9056 7.37673 11.7402V8.62337H4.25985C4.09452 8.62337 3.93596 8.55769 3.81906 8.44078C3.70215 8.32388 3.63647 8.16532 3.63647 7.99999C3.63647 7.83466 3.70215 7.6761 3.81906 7.5592C3.93596 7.44229 4.09452 7.37661 4.25985 7.37661H7.37673V4.25973C7.37673 4.0944 7.44241 3.93584 7.55932 3.81894C7.67622 3.70203 7.83478 3.63635 8.00011 3.63635C8.16544 3.63635 8.324 3.70203 8.4409 3.81894C8.55781 3.93584 8.62349 4.0944 8.62349 4.25973V7.37661H11.7404C11.9057 7.37661 12.0643 7.44229 12.1812 7.5592C12.2981 7.6761 12.3637 7.83466 12.3637 7.99999C12.3637 8.16532 12.2981 8.32388 12.1812 8.44078C12.0643 8.55769 11.9057 8.62337 11.7404 8.62337Z" fill="white"/>
<defs>
<linearGradient id="paint0_linear_8_112" x1="-1.7731" y1="13.1008" x2="19.6564" y2="5.13466" gradientUnits="userSpaceOnUse">
<stop offset="0.11" stop-color="#F1C038"/>
<stop offset="0.16" stop-color="#F0B036"/>
<stop offset="0.33" stop-color="#EC7B31"/>
<stop offset="0.49" stop-color="#E9512D"/>
<stop offset="0.64" stop-color="#E7332A"/>
<stop offset="0.76" stop-color="#E52128"/>
<stop offset="0.85" stop-color="#E51A27"/>
</linearGradient>
</defs>
</svg>
