<svg width="24" height="24" viewBox="0 0 24 24" fill="none" xmlns="http://www.w3.org/2000/svg">
<path d="M19.7113 19.4946L19.7479 19.5309L19.7879 19.5633L22.8535 22.0378L22.9218 22.0929C23.0522 22.3258 23.0195 22.6288 22.824 22.8265C22.6007 23.0521 22.2465 23.0577 22.0168 22.8431L19.4983 19.9567L19.4984 19.9567L19.4932 19.9509L19.4222 19.8707C19.3884 19.822 19.3692 19.7623 19.3692 19.6996C19.3692 19.6202 19.4 19.546 19.4519 19.4924C19.5258 19.4213 19.6382 19.4221 19.7113 19.4946ZM10.2932 1C12.7544 1 15.117 1.98814 16.8607 3.75055C18.6047 5.51332 19.5863 7.90641 19.5863 10.4039C19.5863 15.6077 15.4156 19.8078 10.2932 19.8078C5.17076 19.8078 1 15.6077 1 10.4039C1 5.20016 5.17076 1 10.2932 1Z" stroke="url(#paint0_linear_8_146)" stroke-width="2"/>
<defs>
<linearGradient id="paint0_linear_8_146" x1="-2.65965" y1="19.6512" x2="29.4846" y2="7.70198" gradientUnits="userSpaceOnUse">
<stop offset="0.11" stop-color="#F1C038"/>
<stop offset="0.16" stop-color="#F0B036"/>
<stop offset="0.33" stop-color="#EC7B31"/>
<stop offset="0.49" stop-color="#E9512D"/>
<stop offset="0.64" stop-color="#E7332A"/>
<stop offset="0.76" stop-color="#E52128"/>
<stop offset="0.85" stop-color="#E51A27"/>
</linearGradient>
</defs>
</svg>
