<svg width="39" height="37" viewBox="0 0 39 37" fill="none" xmlns="http://www.w3.org/2000/svg">
<path d="M21.0155 2.8091L25.3286 11.3439C25.5401 11.7729 25.9563 12.0728 26.4406 12.1451L36.0946 13.5185C36.4863 13.5711 36.8402 13.7734 37.0775 14.0805C37.3148 14.3875 37.4158 14.7738 37.3582 15.1535C37.3097 15.4657 37.1556 15.7533 36.9201 15.971L29.9281 22.6419C29.5748 22.9707 29.4163 23.4504 29.5069 23.9173L31.1918 33.3186C31.3137 34.0933 30.7744 34.8202 29.9787 34.9537C29.6506 35.0036 29.3146 34.9521 29.0183 34.8065L20.4089 30.3756C19.9789 30.1458 19.4575 30.1458 19.0274 30.3756L10.3674 34.8392C9.64087 35.201 8.74957 34.9321 8.3625 34.2343C8.21159 33.9529 8.1584 33.6317 8.21087 33.3186L9.89569 23.9173C9.97718 23.451 9.82009 22.9754 9.47448 22.6419L2.43195 15.971C1.85602 15.4044 1.85602 14.4939 2.43195 13.9273C2.667 13.7161 2.95923 13.5743 3.27436 13.5185L12.9284 12.1451C13.4104 12.0675 13.8243 11.7692 14.0403 11.3439L18.3535 2.8091C18.5239 2.46304 18.8311 2.19843 19.2054 2.0753C19.5797 1.95216 19.9894 1.98094 20.3415 2.1551C20.6321 2.29808 20.8681 2.52716 21.0155 2.8091Z" stroke="#F9C330" stroke-width="3" stroke-linecap="round" stroke-linejoin="round"/>
</svg>
