<svg width="15" height="15" viewBox="0 0 15 15" fill="none" xmlns="http://www.w3.org/2000/svg">
<path d="M12.0478 14.2322C11.5146 14.6119 8.09371 12.2047 7.43853 12.1994C6.78335 12.1942 3.32395 14.546 2.79702 14.1578C2.2701 13.7695 3.50887 9.78139 3.31146 9.15845C3.11404 8.53551 -0.198126 5.98148 0.00935014 5.36178C0.216873 4.74208 4.40337 4.68452 4.93651 4.30477C5.46966 3.92507 6.88206 -0.0052399 7.53729 5.24512e-06C8.19242 0.005296 9.54102 3.95781 10.0679 4.34609C10.5949 4.73432 14.7799 4.85929 14.9774 5.48224C15.1748 6.10518 11.8218 8.60556 11.6143 9.22527C11.4068 9.84497 12.5809 13.8525 12.0478 14.2322Z" fill="url(#paint0_linear_8_107)"/>
<defs>
<linearGradient id="paint0_linear_8_107" x1="1.91818e-05" y1="7.13642" x2="14.9858" y2="7.13642" gradientUnits="userSpaceOnUse">
<stop stop-color="#FCD635"/>
<stop offset="1" stop-color="#F7A928"/>
</linearGradient>
</defs>
</svg>
